<svg xmlns="http://www.w3.org/2000/svg" width="210" height="191" viewBox="0 0 210 191"><path d="M79.41 14.63a3.16 3.16 0 0 1-2.2-.92 3.12 3.12 0 0 1 0-4.4 3.22 3.22 0 0 1 4.39 0 3.11 3.11 0 0 1-2.19 5.32zM117.79 11.34a3.1 3.1 0 0 1-2.46-3.64A3.1 3.1 0 0 1 119 5.24a3.11 3.11 0 0 1 2.46 3.64 3.1 3.1 0 0 1-3 2.51 3.43 3.43 0 0 1-.67-.05zM89.07 8.6A3.12 3.12 0 0 1 91.59 5a3.12 3.12 0 0 1 3.6 2.52 3.12 3.12 0 0 1-2.53 3.61 3.61 3.61 0 0 1-.53 0 3.12 3.12 0 0 1-3.06-2.53zm16.17 1.49a3.11 3.11 0 0 1-3.08-3.14 3.1 3.1 0 0 1 3.13-3.07A3.11 3.11 0 0 1 108.37 7a3.11 3.11 0 0 1-3.11 3.08zM131 15a3.12 3.12 0 0 1-2.19-.91 3.3 3.3 0 0 1-.39-.47 3.9 3.9 0 0 1-.28-.54 3.34 3.34 0 0 1-.18-.58 3 3 0 0 1 0-1.22 3.33 3.33 0 0 1 .18-.58 3.45 3.45 0 0 1 .28-.54 3.3 3.3 0 0 1 .86-.86 3.81 3.81 0 0 1 .53-.28 3.2 3.2 0 0 1 .59-.18 3.1 3.1 0 0 1 1.22 0 3.36 3.36 0 0 1 .58.18 3.86 3.86 0 0 1 .53.28 3 3 0 0 1 .48.39 2.77 2.77 0 0 1 .38.47 2.43 2.43 0 0 1 .28.54 2.72 2.72 0 0 1 .18.58 2.86 2.86 0 0 1 .06.6 3.13 3.13 0 0 1-.9 2.2 2.52 2.52 0 0 1-.48.38 3.12 3.12 0 0 1-.53.29 4.41 4.41 0 0 1-.58.18 3.61 3.61 0 0 1-.62.07z" fill="#b2dff2"/><ellipse cx="104.68" cy="149.03" rx="39.7" ry="39.75" fill="#fff"/><path d="M104.68 191a42 42 0 1 1 41.92-42 42 42 0 0 1-41.92 42zm0-79.49A37.53 37.53 0 1 0 142.16 149a37.55 37.55 0 0 0-37.48-37.49z" fill="#d3d2d4"/><ellipse cx="41.92" cy="41.97" rx="39.7" ry="39.75" fill="#fff"/><path d="M41.92 83.94A42 42 0 1 1 83.84 42a42 42 0 0 1-41.92 41.94zm0-79.49A37.53 37.53 0 1 0 79.41 42 37.55 37.55 0 0 0 41.92 4.44z" fill="#d3d2d4"/><path d="M59.6 41.74A4.7 4.7 0 0 1 57 41a2.83 2.83 0 0 1-1.32-2.42v-.75h1.57v.78c0 1.23 1.53 1.56 2.33 1.56 1 0 2.42-.42 2.42-1.56 0-.71-.61-1-2-1.41l-.62-.2-.59-.18c-1.16-.34-3.1-.92-3.1-2.93s2-3.13 4-3.13c2.3 0 3.9 1.29 3.9 3.13v.79H62v-.8c0-1.23-1.53-1.56-2.33-1.56-1 0-2.42.42-2.42 1.56 0 .71.61 1 2 1.42l.66.2.58.18c1.16.34 3.1.91 3.1 2.93s-2.01 3.13-3.99 3.13z" fill="#676767"/><path d="M59.54 25.12a11.12 11.12 0 0 0-9.82 5.93l2.7-.53a9.15 9.15 0 1 1-.32 11l-1.94.63a11.11 11.11 0 1 0 9.38-17.03z" fill="#009bde"/><path d="M22.47 39.71l-.68.84a5.61 5.61 0 0 1 1.21-.44 6.1 6.1 0 0 1 1.43-.11 6.53 6.53 0 0 1 2.16.37 5.22 5.22 0 0 1 1.85 1.1 5.51 5.51 0 0 1 1.29 1.84 6.26 6.26 0 0 1 .49 2.56 6.6 6.6 0 0 1-.5 2.57 6.34 6.34 0 0 1-1.41 2.09 6.55 6.55 0 0 1-2.19 1.41 8.08 8.08 0 0 1-5.64 0 6 6 0 0 1-3.48-3.6 8.09 8.09 0 0 1-.47-2.81 7.87 7.87 0 0 1 .56-2.84 12.8 12.8 0 0 1 1.74-3l4.67-6.28a1.93 1.93 0 0 1 .71-.56 2.41 2.41 0 0 1 1.08-.23h3zm.76 10a3.87 3.87 0 0 0 1.47-.27 3.36 3.36 0 0 0 1.15-.76 3.51 3.51 0 0 0 .75-1.15 3.7 3.7 0 0 0 .27-1.43 4.19 4.19 0 0 0-.26-1.51 3.17 3.17 0 0 0-.73-1.14 3.13 3.13 0 0 0-1.14-.71 4.2 4.2 0 0 0-1.46-.24 3.73 3.73 0 0 0-1.45.27 3.26 3.26 0 0 0-1.11.75 3.45 3.45 0 0 0-.72 1.11 3.85 3.85 0 0 0-.25 1.37 4.67 4.67 0 0 0 .25 1.53 3.1 3.1 0 0 0 .66 1.15 3 3 0 0 0 1.09.74 4 4 0 0 0 1.48.25zM46.14 42.4a16.07 16.07 0 0 1-.55 4.45A9.13 9.13 0 0 1 44.07 50a6.14 6.14 0 0 1-2.29 1.84 6.78 6.78 0 0 1-2.85.6 6.69 6.69 0 0 1-2.84-.6A6.11 6.11 0 0 1 33.83 50a9.13 9.13 0 0 1-1.5-3.12 16.25 16.25 0 0 1-.54-4.45 16.24 16.24 0 0 1 .54-4.46 9.13 9.13 0 0 1 1.5-3.12A6.11 6.11 0 0 1 36.1 33a6.69 6.69 0 0 1 2.84-.6 6.78 6.78 0 0 1 2.85.6 6.14 6.14 0 0 1 2.29 1.84 9.13 9.13 0 0 1 1.52 3.12 16.06 16.06 0 0 1 .54 4.44zm-3.45 0a16.56 16.56 0 0 0-.31-3.52 7.11 7.11 0 0 0-.83-2.22 3 3 0 0 0-1.2-1.16 3.16 3.16 0 0 0-1.41-.33 3.1 3.1 0 0 0-1.39.33 3 3 0 0 0-1.18 1.16 7.1 7.1 0 0 0-.82 2.22 17 17 0 0 0-.31 3.52 17 17 0 0 0 .31 3.52 7.09 7.09 0 0 0 .82 2.22 3 3 0 0 0 1.18 1.16 3.08 3.08 0 0 0 1.39.33 3.15 3.15 0 0 0 1.41-.33 3 3 0 0 0 1.2-1.16 7.1 7.1 0 0 0 .83-2.22 16.56 16.56 0 0 0 .3-3.52z" fill="#666"/><ellipse cx="168.08" cy="41.97" rx="39.7" ry="39.75" fill="#fff"/><path d="M168.08 83.94A42 42 0 1 1 210 42a42 42 0 0 1-41.92 41.94zm0-79.49A37.53 37.53 0 1 0 205.56 42a37.55 37.55 0 0 0-37.48-37.56z" fill="#d3d2d4"/><path d="M127.32 152.68H82a2.42 2.42 0 0 1 0-4.85h45.28a2.42 2.42 0 0 1 .04 4.85z" fill="#b5b4b7"/><path d="M90 156.78a3.74 3.74 0 0 1-3.74 3.74 3.74 3.74 0 0 1-3.74-3.74v-13a3.74 3.74 0 0 1 3.7-3.78 3.74 3.74 0 0 1 3.78 3.74v13z" fill="#0094d5"/><path d="M97.34 159.42a3.74 3.74 0 0 1-3.74 3.74 3.74 3.74 0 0 1-3.74-3.74V141.1a3.74 3.74 0 0 1 3.74-3.74 3.74 3.74 0 0 1 3.74 3.74v18.32z" fill="#33a9dd"/><path d="M119.4 156.78a3.74 3.74 0 0 0 3.74 3.74 3.74 3.74 0 0 0 3.74-3.74v-13a3.74 3.74 0 0 0-3.74-3.74 3.74 3.74 0 0 0-3.74 3.74v13z" fill="#0094d5"/><path d="M112 159.42a3.74 3.74 0 0 0 3.74 3.74 3.74 3.74 0 0 0 3.74-3.74V141.1a3.74 3.74 0 0 0-3.74-3.74 3.74 3.74 0 0 0-3.74 3.74v18.32z" fill="#33a9dd"/><path d="M189.07 56.59h-40.41a2.38 2.38 0 0 1-2.35-2.4V32.8a2.37 2.37 0 0 1 2.35-2.38h7.8a.19.19 0 0 0 .19-.19v-1.18a1.64 1.64 0 0 1 1.63-1.65h30.79a2.37 2.37 0 0 1 2.35 2.38v24.4a2.38 2.38 0 0 1-2.35 2.41z" fill="#99d4ee"/><path fill="#33a9dd" d="M146.3 38.25h45.12v12.51H146.3z"/><path d="M155.27 27.23h-7.2a1.7 1.7 0 0 0 0 3.4h8.25c.57 0 .55-.77.55-1.7a1.66 1.66 0 0 0-1.6-1.7z" fill="#0094d5"/><ellipse cx="173.02" cy="44.51" rx="7.71" ry="7.46" fill="#fff"/><path d="M173 52.54a8 8 0 1 1 8.27-8 8.16 8.16 0 0 1-8.27 8z" fill="#b5b4b7"/><ellipse cx="173.02" cy="44.51" rx="4.63" ry="4.69" fill="#e2e1e2"/><path d="M173 50a5.54 5.54 0 1 1 5.47-5.54A5.51 5.51 0 0 1 173 50zm0-9.38a3.84 3.84 0 1 0 3.79 3.84 3.81 3.81 0 0 0-3.79-3.79z" fill="#89888c"/><path d="M186.47 34.91h-5a1.7 1.7 0 0 1-1.68-1.71v-.85a1.7 1.7 0 0 1 1.68-1.71h5a1.7 1.7 0 0 1 1.68 1.71v.85a1.7 1.7 0 0 1-1.68 1.71zm-5-3.13a.57.57 0 0 0-.56.57v.85a.57.57 0 0 0 .56.57h5a.57.57 0 0 0 .53-.57v-.85a.57.57 0 0 0-.56-.57h-5z" fill="#fff"/><rect x="165.84" y="31.6" width="6.46" height="2.35" rx=".57" ry=".57" fill="#f0f0f1"/><ellipse cx="161.65" cy="33.63" rx="1.59" ry="1.61" fill="#f0f0f1"/><path d="M177.42 95a3.12 3.12 0 0 1-2.19-.91 2.82 2.82 0 0 1-.39-.47 3.93 3.93 0 0 1-.28-.54 2.72 2.72 0 0 1-.18-.58 3.58 3.58 0 0 1-.06-.61 3.13 3.13 0 0 1 .91-2.19 3.21 3.21 0 0 1 4.39 0 3.1 3.1 0 0 1-2.2 5.3zM158.68 129.2a3.1 3.1 0 0 1-.22-4.39 3.1 3.1 0 0 1 4.38-.22 3.11 3.11 0 0 1 .22 4.39 3.08 3.08 0 0 1-2.31 1 3.08 3.08 0 0 1-2.07-.78zm8.32-10.13a3.11 3.11 0 0 1-1-4.28 3.1 3.1 0 0 1 4.27-1 3.11 3.11 0 0 1 1 4.28 3.1 3.1 0 0 1-2.64 1.47 3.14 3.14 0 0 1-1.63-.47zm6.28-11.53a3.1 3.1 0 0 1-1.87-4 3.1 3.1 0 0 1 4-1.88 3.11 3.11 0 0 1 1.88 4 3.11 3.11 0 0 1-2.93 2.06 3.11 3.11 0 0 1-1.05-.18zM151.26 139.07a3.38 3.38 0 0 1-.6-.05 4.81 4.81 0 0 1-.59-.18 3.85 3.85 0 0 1-.53-.28 3.34 3.34 0 0 1-.86-.86 3.49 3.49 0 0 1-.28-.54 3.25 3.25 0 0 1-.18-.58 3.57 3.57 0 0 1-.06-.6 3.13 3.13 0 0 1 .91-2.2 2.76 2.76 0 0 1 .47-.38 3.09 3.09 0 0 1 .53-.29 4.81 4.81 0 0 1 .59-.18 3.08 3.08 0 0 1 1.22 0 4.29 4.29 0 0 1 .58.18 2.83 2.83 0 0 1 .53.29 2.55 2.55 0 0 1 .48.38 3.13 3.13 0 0 1 .9 2.2 2.8 2.8 0 0 1-.06.6 2.71 2.71 0 0 1-.18.58 2.45 2.45 0 0 1-.28.54 3.3 3.3 0 0 1-.38.47 3.43 3.43 0 0 1-.48.39 3.92 3.92 0 0 1-.53.28 4.29 4.29 0 0 1-.58.18 3.57 3.57 0 0 1-.62.05zM57.38 138.48a3.09 3.09 0 0 1-2.19-.92 3.13 3.13 0 0 1-.91-2.19 3.17 3.17 0 0 1 .91-2.2 3.22 3.22 0 0 1 4.39 0 3.16 3.16 0 0 1 .91 2.2 3.11 3.11 0 0 1-3.11 3.11zM46.07 128.27a3.11 3.11 0 0 1 .43-4.37 3.11 3.11 0 0 1 4.38.42 3.12 3.12 0 0 1-.43 4.38 3.08 3.08 0 0 1-2 .71 3.11 3.11 0 0 1-2.38-1.14zm-7.5-10.94a3.12 3.12 0 0 1 1.18-4.24 3.11 3.11 0 0 1 4.25 1.18 3.11 3.11 0 0 1-1.18 4.24 3 3 0 0 1-1.52.4 3.11 3.11 0 0 1-2.73-1.59zM33 105.42a3.12 3.12 0 0 1 1.76-4 3.11 3.11 0 0 1 4 1.76 3.1 3.1 0 0 1-1.76 4 3 3 0 0 1-1.14.22 3.11 3.11 0 0 1-2.86-1.98zM32.55 95.1a3.12 3.12 0 0 1-2.19-.91 3.17 3.17 0 0 1-.91-2.2 3.11 3.11 0 0 1 .91-2.19 3.2 3.2 0 0 1 4.39 0 3.11 3.11 0 0 1 .91 2.2 3.16 3.16 0 0 1-.91 2.2 3.12 3.12 0 0 1-2.2.9z" fill="#b2dff2"/><ellipse cx="104.68" cy="149.03" rx="39.7" ry="39.75" fill="#fff"/><path d="M104.68 191a42 42 0 1 1 41.92-42 42 42 0 0 1-41.92 42zm0-79.49A37.53 37.53 0 1 0 142.16 149a37.55 37.55 0 0 0-37.48-37.49z" fill="#d3d2d4"/><ellipse cx="41.92" cy="41.97" rx="39.7" ry="39.75" fill="#fff"/><path d="M41.92 83.94A42 42 0 1 1 83.84 42a42 42 0 0 1-41.92 41.94zm0-79.49A37.53 37.53 0 1 0 79.41 42 37.55 37.55 0 0 0 41.92 4.44z" fill="#d3d2d4"/><path d="M59.6 41.74A4.7 4.7 0 0 1 57 41a2.83 2.83 0 0 1-1.32-2.42v-.75h1.57v.78c0 1.23 1.53 1.56 2.33 1.56 1 0 2.42-.42 2.42-1.56 0-.71-.61-1-2-1.41l-.62-.2-.59-.18c-1.16-.34-3.1-.92-3.1-2.93s2-3.13 4-3.13c2.3 0 3.9 1.29 3.9 3.13v.79H62v-.8c0-1.23-1.53-1.56-2.33-1.56-1 0-2.42.42-2.42 1.56 0 .71.61 1 2 1.42l.66.2.58.18c1.16.34 3.1.91 3.1 2.93s-2.01 3.13-3.99 3.13z" fill="#676767"/><path d="M59.54 25.12a11.12 11.12 0 0 0-9.82 5.93l2.7-.53a9.15 9.15 0 1 1-.32 11l-1.94.63a11.11 11.11 0 1 0 9.38-17.03z" fill="#009bde"/><path d="M22.47 39.71l-.68.84a5.61 5.61 0 0 1 1.21-.44 6.1 6.1 0 0 1 1.43-.11 6.53 6.53 0 0 1 2.16.37 5.22 5.22 0 0 1 1.85 1.1 5.51 5.51 0 0 1 1.29 1.84 6.26 6.26 0 0 1 .49 2.56 6.6 6.6 0 0 1-.5 2.57 6.34 6.34 0 0 1-1.41 2.09 6.55 6.55 0 0 1-2.19 1.41 8.08 8.08 0 0 1-5.64 0 6 6 0 0 1-3.48-3.6 8.09 8.09 0 0 1-.47-2.81 7.87 7.87 0 0 1 .56-2.84 12.8 12.8 0 0 1 1.74-3l4.67-6.28a1.93 1.93 0 0 1 .71-.56 2.41 2.41 0 0 1 1.08-.23h3zm.76 10a3.87 3.87 0 0 0 1.47-.27 3.36 3.36 0 0 0 1.15-.76 3.51 3.51 0 0 0 .75-1.15 3.7 3.7 0 0 0 .27-1.43 4.19 4.19 0 0 0-.26-1.51 3.17 3.17 0 0 0-.73-1.14 3.13 3.13 0 0 0-1.14-.71 4.2 4.2 0 0 0-1.46-.24 3.73 3.73 0 0 0-1.45.27 3.26 3.26 0 0 0-1.11.75 3.45 3.45 0 0 0-.72 1.11 3.85 3.85 0 0 0-.25 1.37 4.67 4.67 0 0 0 .25 1.53 3.1 3.1 0 0 0 .66 1.15 3 3 0 0 0 1.09.74 4 4 0 0 0 1.48.25zM46.14 42.4a16.07 16.07 0 0 1-.55 4.45A9.13 9.13 0 0 1 44.07 50a6.14 6.14 0 0 1-2.29 1.84 6.78 6.78 0 0 1-2.85.6 6.69 6.69 0 0 1-2.84-.6A6.11 6.11 0 0 1 33.83 50a9.13 9.13 0 0 1-1.5-3.12 16.25 16.25 0 0 1-.54-4.45 16.24 16.24 0 0 1 .54-4.46 9.13 9.13 0 0 1 1.5-3.12A6.11 6.11 0 0 1 36.1 33a6.69 6.69 0 0 1 2.84-.6 6.78 6.78 0 0 1 2.85.6 6.14 6.14 0 0 1 2.29 1.84 9.13 9.13 0 0 1 1.52 3.12 16.06 16.06 0 0 1 .54 4.44zm-3.45 0a16.56 16.56 0 0 0-.31-3.52 7.11 7.11 0 0 0-.83-2.22 3 3 0 0 0-1.2-1.16 3.16 3.16 0 0 0-1.41-.33 3.1 3.1 0 0 0-1.39.33 3 3 0 0 0-1.18 1.16 7.1 7.1 0 0 0-.82 2.22 17 17 0 0 0-.31 3.52 17 17 0 0 0 .31 3.52 7.09 7.09 0 0 0 .82 2.22 3 3 0 0 0 1.18 1.16 3.08 3.08 0 0 0 1.39.33 3.15 3.15 0 0 0 1.41-.33 3 3 0 0 0 1.2-1.16 7.1 7.1 0 0 0 .83-2.22 16.56 16.56 0 0 0 .3-3.52z" fill="#666"/><ellipse cx="168.08" cy="41.97" rx="39.7" ry="39.75" fill="#fff"/><path d="M168.08 83.94A42 42 0 1 1 210 42a42 42 0 0 1-41.92 41.94zm0-79.49A37.53 37.53 0 1 0 205.56 42a37.55 37.55 0 0 0-37.48-37.56z" fill="#d3d2d4"/><path d="M127.32 152.68H82a2.42 2.42 0 0 1 0-4.85h45.28a2.42 2.42 0 0 1 .04 4.85z" fill="#b5b4b7"/><path d="M90 156.78a3.74 3.74 0 0 1-3.74 3.74 3.74 3.74 0 0 1-3.74-3.74v-13a3.74 3.74 0 0 1 3.7-3.78 3.74 3.74 0 0 1 3.78 3.74v13z" fill="#0094d5"/><path d="M97.34 159.42a3.74 3.74 0 0 1-3.74 3.74 3.74 3.74 0 0 1-3.74-3.74V141.1a3.74 3.74 0 0 1 3.74-3.74 3.74 3.74 0 0 1 3.74 3.74v18.32z" fill="#33a9dd"/><path d="M119.4 156.78a3.74 3.74 0 0 0 3.74 3.74 3.74 3.74 0 0 0 3.74-3.74v-13a3.74 3.74 0 0 0-3.74-3.74 3.74 3.74 0 0 0-3.74 3.74v13z" fill="#0094d5"/><path d="M112 159.42a3.74 3.74 0 0 0 3.74 3.74 3.74 3.74 0 0 0 3.74-3.74V141.1a3.74 3.74 0 0 0-3.74-3.74 3.74 3.74 0 0 0-3.74 3.74v18.32z" fill="#33a9dd"/><path d="M189.07 56.59h-40.41a2.38 2.38 0 0 1-2.35-2.4V32.8a2.37 2.37 0 0 1 2.35-2.38h7.8a.19.19 0 0 0 .19-.19v-1.18a1.64 1.64 0 0 1 1.63-1.65h30.79a2.37 2.37 0 0 1 2.35 2.38v24.4a2.38 2.38 0 0 1-2.35 2.41z" fill="#99d4ee"/><path fill="#33a9dd" d="M146.3 38.25h45.12v12.51H146.3z"/><path d="M155.27 27.23h-7.2a1.7 1.7 0 0 0 0 3.4h8.25c.57 0 .55-.77.55-1.7a1.66 1.66 0 0 0-1.6-1.7z" fill="#0094d5"/><ellipse cx="173.02" cy="44.51" rx="7.71" ry="7.46" fill="#fff"/><path d="M173 52.54a8 8 0 1 1 8.27-8 8.16 8.16 0 0 1-8.27 8z" fill="#b5b4b7"/><ellipse cx="173.02" cy="44.51" rx="4.63" ry="4.69" fill="#e2e1e2"/><path d="M173 50a5.54 5.54 0 1 1 5.47-5.54A5.51 5.51 0 0 1 173 50zm0-9.38a3.84 3.84 0 1 0 3.79 3.84 3.81 3.81 0 0 0-3.79-3.79z" fill="#89888c"/><path d="M186.47 34.91h-5a1.7 1.7 0 0 1-1.68-1.71v-.85a1.7 1.7 0 0 1 1.68-1.71h5a1.7 1.7 0 0 1 1.68 1.71v.85a1.7 1.7 0 0 1-1.68 1.71zm-5-3.13a.57.57 0 0 0-.56.57v.85a.57.57 0 0 0 .56.57h5a.57.57 0 0 0 .53-.57v-.85a.57.57 0 0 0-.56-.57h-5z" fill="#fff"/><rect x="165.84" y="31.6" width="6.46" height="2.35" rx=".57" ry=".57" fill="#f0f0f1"/><ellipse cx="161.65" cy="33.63" rx="1.59" ry="1.61" fill="#f0f0f1"/></svg>